<!DOCTYPE svg PUBLIC "-//W3C//DTD SVG 1.1//EN" "http://www.w3.org/Graphics/SVG/1.1/DTD/svg11.dtd">

<!-- Uploaded to: SVG Repo, www.svgrepo.com, Transformed by: SVG Repo Mixer Tools -->
<svg fill="#ffffff" width="800px" height="800px" viewBox="0 0 24 24" id="carpet-3" data-name="Line Color"
     xmlns="http://www.w3.org/2000/svg" class="icon line-color">

    <g id="SVGRepo_bgCarrier" stroke-width="0"/>

    <g id="SVGRepo_tracerCarrier" stroke-linecap="round" stroke-linejoin="round"/>

    <g id="SVGRepo_iconCarrier">

        <rect id="secondary" x="7" y="10" width="8" height="6" transform="translate(22 26) rotate(180)"
              style="fill: none; stroke: #ffffff; stroke-linecap: round; stroke-linejoin: round; stroke-width: 2;"/>

        <path id="primary" d="M5,20H18a1,1,0,0,0,1-1V7a1,1,0,0,0-1-1H7"
              style="fill: none; stroke: #ffffff; stroke-linecap: round; stroke-linejoin: round; stroke-width: 2;"/>

        <path id="primary-2" data-name="primary"
              d="M7,6V18a2,2,0,0,1-4,0V6A2,2,0,0,1,7,6ZM5,16a2,2,0,1,0,2,2A2,2,0,0,0,5,16ZM21,9H19m2,4H19m2,4H19"
              style="fill: none; stroke: #ffffff; stroke-linecap: round; stroke-linejoin: round; stroke-width: 2;"/>

    </g>

</svg>