<!DOCTYPE svg PUBLIC "-//W3C//DTD SVG 1.1//EN" "http://www.w3.org/Graphics/SVG/1.1/DTD/svg11.dtd">

<!-- Uploaded to: SVG Repo, www.svgrepo.com, Transformed by: SVG Repo Mixer Tools -->
<svg fill="#ffffff" version="1.1" id="Layer_1"
     xmlns="http://www.w3.org/2000/svg" viewBox="0 0 512 512" xml:space="preserve" width="800px" height="800px">

<g id="SVGRepo_bgCarrier" stroke-width="0"/>

    <g id="SVGRepo_tracerCarrier" stroke-linecap="round" stroke-linejoin="round"/>

    <g id="SVGRepo_iconCarrier"> <g> <g> <polygon points="202.268,512 340.105,512 512,340.105 512,202.268 "/> </g> </g>
        <g> <g> <polygon points="75.209,96.686 0,171.895 0,309.732 144.128,165.605 "/> </g> </g>
        <g> <g> <polygon points="256,277.477 21.477,512 159.314,512 324.919,346.395 "/> </g> </g>
        <g> <g> <polygon points="436.791,458.268 383.058,512 490.523,512 "/> </g> </g>
        <g> <g> <polygon points="458.268,436.791 512,490.523 512,383.058 "/> </g> </g>
        <g> <g> <polygon points="171.895,0 96.686,75.209 165.605,144.128 309.732,0 "/> </g> </g>
        <g> <g> <polygon points="0,383.058 0,490.523 53.732,436.791 "/> </g> </g>
        <g> <g> <polygon points="277.477,256 346.395,324.919 512,159.314 512,21.477 "/> </g> </g>
        <g> <g> <polygon points="0,0 0,128.942 128.942,0 "/> </g> </g>
        <g> <g> <polygon points="383.058,0 436.791,53.732 490.523,0 "/> </g> </g>
        <g> <g> <rect x="-29.694" y="162.064" transform="matrix(0.7071 -0.7071 0.7071 0.7071 -87.315 210.7958)"
                      width="480.979" height="97.465"/> </g> </g> </g>

</svg>