<!DOCTYPE svg PUBLIC "-//W3C//DTD SVG 1.1//EN" "http://www.w3.org/Graphics/SVG/1.1/DTD/svg11.dtd">

<!-- Uploaded to: SVG Repo, www.svgrepo.com, Transformed by: SVG Repo Mixer Tools -->
<svg fill="#ffffff" height="64px" width="64px" version="1.1" id="Layer_1"
     xmlns="http://www.w3.org/2000/svg" viewBox="0 0 512.21 512.21" xml:space="preserve" stroke="#ffffff"
     stroke-width="11.268685999999999">

<g id="SVGRepo_bgCarrier" stroke-width="0"/>

    <g id="SVGRepo_tracerCarrier" stroke-linecap="round" stroke-linejoin="round" stroke="#CCCCCC"
       stroke-width="6.1465559999999995"/>

    <g id="SVGRepo_iconCarrier"> <g transform="translate(0 1)"> <g> <g> <path
            d="M489.067,187.8L292.8,13.72c-20.48-19.627-52.907-19.627-73.387,0l-65.707,59.733v-23.04h8.533 c5.12,0,8.533-3.413,8.533-8.533V7.747c0-5.12-3.413-8.533-8.533-8.533H59.84c-5.12,0-8.533,3.413-8.533,8.533V41.88 c0,5.12,3.413,8.533,8.533,8.533h8.533v98.133L23.147,187.8c-5.973,5.973-7.68,13.653-5.12,21.333 c2.56,6.827,10.24,11.947,17.92,11.947h32.427v238.933H59.84c-5.12,0-8.533,3.413-8.533,8.533v34.133 c0,5.12,3.413,8.533,8.533,8.533h392.533c4.267,0,8.533-3.413,8.533-9.387v-34.133c0-2.56-0.853-4.267-2.56-5.973 c-1.707-1.707-3.413-2.56-5.973-2.56h-8.533V220.227h32.427c8.533,0,15.36-4.267,17.92-11.947 C496.747,201.453,495.04,192.92,489.067,187.8z M477.973,203.16c-0.853,0.853-1.707,0.853-1.707,0.853h-40.96 c-5.12,0-8.533,3.413-8.533,8.533v256c0,5.12,3.413,8.533,8.533,8.533h8.533v17.067H68.373V477.08h8.533 c5.12,0,8.533-3.413,8.533-8.533v-256c0-5.12-3.413-8.533-8.533-8.533h-40.96c-0.853,0-1.707,0-1.707-0.853s0-1.707,0.853-2.56 l47.787-40.96c1.707-1.707,2.56-4.267,2.56-6.827V41.88c0-5.12-3.413-8.533-8.533-8.533h-8.533V16.28h85.333v17.067h-8.533 c-5.12,0-8.533,3.413-8.533,8.533v51.2c0,3.413,1.707,6.827,5.12,9.387c3.413,0.853,6.827,0.853,9.387-1.707l80.213-73.387 c13.653-13.653,34.987-13.653,49.493,0l196.267,174.08C477.973,201.453,478.827,202.307,477.973,203.16z"/>
        <path d="M256.107,161.347c-80.213,0-145.067,64.853-145.067,145.067S175.893,451.48,256.107,451.48 s145.067-64.853,145.067-145.067S336.32,161.347,256.107,161.347z M256.107,434.413c-70.827,0-128-57.173-128-128 s57.173-128,128-128s128,57.173,128,128S326.933,434.413,256.107,434.413z"/>
        <path d="M324.373,349.08c-5.12,0-8.533,3.413-8.533,8.533c0,11.947-5.12,17.067-17.067,17.067h-68.267 c5.973-8.533,8.533-18.773,8.533-25.6v-42.667h25.6c5.12,0,8.533-3.413,8.533-8.533s-3.413-8.533-8.533-8.533h-25.6V246.68 c0-14.507,11.093-25.6,25.6-25.6c14.507,0,25.6,11.093,25.6,25.6c0,5.12,3.413,8.533,8.533,8.533s8.533-3.413,8.533-8.533 c0-23.893-18.773-42.667-42.667-42.667s-42.667,18.773-42.667,42.667v42.667h-25.6c-5.12,0-8.533,3.413-8.533,8.533 s3.413,8.533,8.533,8.533h25.6v42.667c0,2.56-1.707,25.6-25.6,25.6c-5.12,0-8.533,3.413-8.533,8.533s3.413,8.533,8.533,8.533 h102.4c21.333,0,34.133-12.8,34.133-34.133C332.907,352.493,329.493,349.08,324.373,349.08z"/> </g> </g> </g> </g>

</svg>